<svg width="30" height="30" viewBox="0 0 30 30" fill="none" xmlns="http://www.w3.org/2000/svg">
<g clip-path="url(#clip0)">
<path d="M23.6875 18.4811C23.0988 17.2536 20.9925 15.5498 18.9576 13.9035C17.8225 12.986 16.75 12.1185 16.0663 11.4348C15.895 11.2623 15.6388 11.2073 15.4126 11.2886C14.9914 11.4411 14.7313 11.5586 14.5264 11.6498C14.2139 11.7898 14.1089 11.8373 13.6876 11.8798C13.5013 11.8985 13.3339 11.9985 13.2301 12.1535C12.3463 13.4747 11.4313 13.3622 10.8201 13.1573C10.6251 13.0923 10.5901 13.0085 10.5713 12.9285C10.4401 12.3798 11.0989 11.1023 11.9526 10.2485C13.9838 8.21601 15.0313 7.70724 17.2438 8.69601C19.7538 9.81849 22.2688 10.6973 22.2938 10.706C22.6226 10.8197 22.9763 10.6472 23.0901 10.321C23.2026 9.99474 23.0313 9.63849 22.705 9.52476C22.68 9.51603 20.215 8.65476 17.755 7.55349C14.8888 6.27222 13.3163 7.11597 11.07 9.36351C10.215 10.2185 9.05375 11.9485 9.35375 13.2173C9.48248 13.7573 9.86252 14.1573 10.4275 14.3435C11.8438 14.811 13.1362 14.3635 14.0987 13.086C14.4962 13.0248 14.7125 12.9348 15.0375 12.7886C15.1549 12.7361 15.2925 12.6748 15.475 12.6011C16.19 13.2723 17.155 14.0535 18.1712 14.8748C20.0087 16.361 22.0925 18.0461 22.5613 19.0211C22.7925 19.5023 22.5437 19.8161 22.375 19.9598C22.1275 20.1723 21.7888 20.2398 21.605 20.111C21.4025 19.9723 21.1388 19.9635 20.93 20.0885C20.72 20.2135 20.6025 20.4497 20.6288 20.6923C20.6713 21.0898 20.3075 21.3173 20.15 21.396C19.75 21.5985 19.3325 21.5635 19.1762 21.4185C19.0012 21.2561 18.75 21.2085 18.5275 21.291C18.305 21.3748 18.15 21.5798 18.1275 21.8173C18.09 22.2272 17.7862 22.621 17.3899 22.7747C17.1987 22.8472 16.9212 22.891 16.6725 22.6635C16.5175 22.5235 16.3024 22.4697 16.1012 22.5185C15.8975 22.5684 15.7337 22.716 15.6625 22.9122C15.6388 22.9747 15.585 23.1247 15 23.1247C14.5837 23.1247 13.8349 22.8435 13.4687 22.601C13.03 22.3122 10.2787 20.2597 7.9025 18.2697C7.56875 17.9885 6.99125 17.3859 6.48125 16.8534C6.02873 16.3809 5.615 15.9522 5.40248 15.7722C5.13623 15.5472 4.74248 15.581 4.52123 15.846C4.29875 16.1097 4.33121 16.5047 4.595 16.7272C4.78877 16.891 5.16377 17.2872 5.5775 17.7185C6.13502 18.3009 6.71123 18.9035 7.09877 19.2285C9.42629 21.1772 12.2238 23.281 12.7813 23.6472C13.2413 23.9497 14.2325 24.3747 15 24.3747C15.6163 24.3747 16.09 24.2334 16.4188 23.9572C16.8587 24.1285 17.3588 24.1297 17.84 23.9422C18.4088 23.7222 18.8762 23.2785 19.1413 22.741C19.6337 22.846 20.1975 22.7722 20.71 22.5148C21.2113 22.2623 21.5737 21.876 21.7537 21.4247C22.2512 21.451 22.7637 21.2747 23.1874 20.911C23.905 20.2973 24.1025 19.3423 23.6875 18.4811Z" fill="#015890"/>
<path d="M12.5 8.12482H6.87496C6.52996 8.12482 6.24994 8.40484 6.24994 8.74984C6.24994 9.09484 6.52996 9.37486 6.87496 9.37486H12.5C12.845 9.37486 13.125 9.09484 13.125 8.74984C13.125 8.40484 12.845 8.12482 12.5 8.12482Z" fill="#015890"/>
<path d="M25.5187 17.151C25.325 16.8648 24.9375 16.786 24.6512 16.981L22.8238 18.2085C22.5375 18.401 22.4612 18.7898 22.6538 19.076C22.775 19.2548 22.9725 19.3523 23.1738 19.3523C23.2926 19.3523 23.4138 19.3185 23.5213 19.246L25.3488 18.0186C25.635 17.826 25.7112 17.4373 25.5187 17.151Z" fill="#015890"/>
<path d="M21.6387 20.1336C21.1913 19.7811 19.19 17.7324 17.9525 16.4424C17.7137 16.1923 17.3175 16.1836 17.0687 16.4236C16.8187 16.6624 16.8112 17.0586 17.05 17.3074C17.3712 17.6424 20.2049 20.5961 20.8637 21.1161C20.9774 21.2061 21.115 21.2499 21.25 21.2499C21.4337 21.2499 21.6175 21.1674 21.7424 21.0111C21.9563 20.7411 21.91 20.3473 21.6387 20.1336Z" fill="#015890"/>
<path d="M19.1413 21.3873C18.3925 20.7886 16.5113 18.7898 16.0862 18.3273C15.8512 18.0723 15.4574 18.0573 15.2024 18.2898C14.9487 18.5236 14.9312 18.9198 15.1649 19.1736C15.1874 19.1973 17.4325 21.6211 18.36 22.3636C18.475 22.4549 18.6137 22.4999 18.75 22.4999C18.9325 22.4999 19.1149 22.4186 19.2387 22.2661C19.4538 21.9961 19.41 21.6023 19.1413 21.3873Z" fill="#015890"/>
<path d="M16.6537 22.6461C15.7625 21.8949 13.9387 19.9536 13.5825 19.5724C13.3462 19.3199 12.95 19.3061 12.6987 19.5424C12.4462 19.7786 12.4337 20.1736 12.6687 20.4261C13.1812 20.9749 14.9262 22.8249 15.8475 23.6024C15.965 23.7011 16.1075 23.7499 16.25 23.7499C16.4275 23.7499 16.605 23.6736 16.7287 23.5274C16.9512 23.2624 16.9175 22.8686 16.6537 22.6461Z" fill="#015890"/>
<path d="M7.305 7.04611C6.23373 6.03109 1.95 5.70232 0.66252 5.62609C0.485039 5.61736 0.32127 5.67607 0.196289 5.79484C0.07125 5.91232 0 6.07732 0 6.24983V17.4998C0 17.8448 0.28002 18.1249 0.62502 18.1249H4.37502C4.64502 18.1249 4.88502 17.9511 4.96875 17.6936C5.05998 17.4136 7.21377 10.8036 7.49748 7.5536C7.51377 7.36358 7.44375 7.17608 7.305 7.04611ZM3.91875 16.8749H1.24998V6.91985C3.25875 7.07858 5.42625 7.42358 6.21375 7.80608C5.88252 10.5436 4.38375 15.4073 3.91875 16.8749Z" fill="#015890"/>
<path d="M29.375 6.87482C24.4674 6.87482 21.7449 8.13107 21.6312 8.18357C21.4687 8.2598 21.3474 8.40106 21.2974 8.57233C21.2475 8.7436 21.2724 8.92735 21.3662 9.07981C22.1387 10.3236 24.5574 17.2311 25.0224 18.9161C25.0974 19.1873 25.3437 19.3748 25.625 19.3748H29.375C29.72 19.3748 30 19.0948 30 18.7498V7.49978C30 7.15355 29.72 6.87482 29.375 6.87482ZM28.75 18.1248H26.0925C25.5 16.1948 23.75 11.1623 22.7737 9.08233C23.7275 8.7586 25.7762 8.20232 28.75 8.13235V18.1248Z" fill="#015890"/>
</g>
<defs>
<clipPath id="clip0">
<rect width="30" height="30" fill="white"/>
</clipPath>
</defs>
</svg>
