<svg width="30" height="30" viewBox="0 0 30 30" fill="none" xmlns="http://www.w3.org/2000/svg">
<path d="M28.223 8.11934C28.2171 8.64153 28.144 9.14838 28.0122 9.63177L20.2938 2.0069C20.7993 1.86318 21.3313 1.78315 21.8807 1.77705L21.861 0C17.5684 0.0476281 14.0884 3.57145 14.1035 7.85306L14.1104 14.1103L7.8552 14.1034C7.84578 14.1034 7.83695 14.1034 7.82753 14.1034C3.55653 14.1034 0.0474504 17.5778 0 21.8609L1.77705 21.8806C1.78285 21.3578 1.85542 20.8505 1.98634 20.3669L9.70469 27.9916C9.19939 28.1362 8.6679 28.2169 8.11928 28.2229L8.13901 29.9999C12.4114 29.9526 15.8915 26.4306 15.8967 22.1469L15.8895 15.8896L22.149 15.8966C26.4306 15.8915 29.9525 12.4115 29.9999 8.13907L28.223 8.11934ZM15.8875 14.1123L15.8837 10.5977L19.4455 14.1163L15.8875 14.1123ZM7.82972 15.8805C7.83677 15.8805 7.84406 15.8806 7.85111 15.8806L8.02302 15.8808L14.1192 21.903L14.1195 22.1469C14.1186 22.8862 13.9837 23.596 13.7383 24.2534L5.66934 16.2823C6.34129 16.023 7.06981 15.8805 7.82972 15.8805ZM11.4218 27.1897L2.76349 18.6366C3.12029 18.0908 3.56251 17.606 4.07036 17.2008L12.8395 25.8635C12.4406 26.3771 11.9615 26.8254 11.4218 27.1897ZM14.1164 19.4021L10.5547 15.8835L14.1124 15.8876L14.1164 19.4021ZM21.9772 14.1193L15.8809 8.09695L15.8806 7.84898C15.878 7.10879 16.0109 6.3981 16.2552 5.74007L24.3246 13.7116C23.6479 13.9739 22.9141 14.1185 22.149 14.1195L21.9772 14.1193ZM25.923 12.7925L17.1535 4.12937C17.5525 3.61653 18.0324 3.16898 18.5735 2.80555L27.2319 11.359C26.8743 11.9033 26.4314 12.3874 25.923 12.7925Z" fill="#015890"/>
</svg>
