<svg width="30" height="30" viewBox="0 0 30 30" fill="none" xmlns="http://www.w3.org/2000/svg">
<path d="M26.6016 4.89346L21.7081 0H7.14844V15.9536C5.05096 16.1326 3.39844 17.8959 3.39844 20.0391C3.39844 21.2695 3.94383 22.3743 4.80469 23.1267V30H5.77061L7.5 28.2706L9.22939 30H10.1953V26.9531H26.6016V4.89346ZM21.9141 1.20029L25.4013 4.6875H21.9141V1.20029ZM4.10156 20.0391C4.10156 18.1652 5.62611 16.6406 7.5 16.6406C9.37389 16.6406 10.8984 18.1652 10.8984 20.0391C10.8984 21.9129 9.37389 23.4375 7.5 23.4375C5.62611 23.4375 4.10156 21.9129 4.10156 20.0391ZM7.5 27.2763L5.50781 29.2685V23.6226C6.09814 23.9521 6.7773 24.1407 7.5 24.1407C8.2227 24.1407 8.90186 23.9521 9.49219 23.6226V29.2685L7.5 27.2763ZM10.1953 26.25V23.1267C11.0562 22.3743 11.6016 21.2695 11.6016 20.0391C11.6016 17.896 9.94904 16.1327 7.85156 15.9536V0.703125H21.2109V5.39062H25.8984V26.25H10.1953Z" fill="#015890"/>
<path d="M10.3125 3.75H15.9375V4.45312H10.3125V3.75Z" fill="#015890"/>
<path d="M10.3125 5.625H14.0625V6.32812H10.3125V5.625Z" fill="#015890"/>
<path d="M10.3125 8.4375H23.4375V9.14062H10.3125V8.4375Z" fill="#015890"/>
<path d="M10.3125 10.3125H23.4375V11.0156H10.3125V10.3125Z" fill="#015890"/>
<path d="M10.3125 14.0625H23.4375V14.7656H10.3125V14.0625Z" fill="#015890"/>
<path d="M12.1875 15.9375H21.5625V16.6406H12.1875V15.9375Z" fill="#015890"/>
<path d="M10.3125 12.1875H23.4375V12.8906H10.3125V12.1875Z" fill="#015890"/>
<path d="M17.8125 18.75H23.4375V19.4531H17.8125V18.75Z" fill="#015890"/>
<path d="M19.6875 20.625H23.4375V21.3281H19.6875V20.625Z" fill="#015890"/>
<path d="M7.5 22.2656C8.72771 22.2656 9.72656 21.2668 9.72656 20.0391C9.72656 18.8113 8.72771 17.8125 7.5 17.8125C6.27229 17.8125 5.27344 18.8113 5.27344 20.0391C5.27344 21.2668 6.27229 22.2656 7.5 22.2656ZM7.5 18.5156C8.34006 18.5156 9.02344 19.199 9.02344 20.0391C9.02344 20.8791 8.34006 21.5625 7.5 21.5625C6.65994 21.5625 5.97656 20.8791 5.97656 20.0391C5.97656 19.199 6.65994 18.5156 7.5 18.5156Z" fill="#015890"/>
</svg>
