<svg width="30" height="30" viewBox="0 0 30 30" fill="none" xmlns="http://www.w3.org/2000/svg">
<g clip-path="url(#clip0)">
<path d="M28.3548 4.31388C27.2999 3.2582 25.8685 2.66528 24.3761 2.66579C22.8843 2.66227 21.453 3.25499 20.4004 4.31205L13.1375 11.5751C11.7005 13.0143 11.1511 15.1166 11.7003 17.0749C11.8611 17.645 12.4537 17.9768 13.0238 17.8159C13.5939 17.6551 13.9257 17.0626 13.7649 16.4925C13.4263 15.2815 13.766 13.982 14.654 13.0916L21.9169 5.82968C23.2748 4.47148 25.4766 4.47123 26.8348 5.82918C28.193 7.18707 28.1933 9.38892 26.8354 10.7471L19.5725 18.0101C19.0965 18.4867 18.492 18.8143 17.8329 18.9528C17.253 19.0735 16.8808 19.6415 17.0015 20.2214C17.1053 20.7201 17.5455 21.0769 18.0548 21.0753C18.1298 21.0754 18.2046 21.0674 18.2779 21.0517C19.3431 20.8271 20.3199 20.2972 21.089 19.5266L28.352 12.2648C30.5483 10.0699 30.5495 6.51026 28.3548 4.31388Z" fill="#015890"/>
<path d="M18.2682 12.9544C18.1074 12.3842 17.5149 12.0524 16.9448 12.2133C16.3747 12.3741 16.0429 12.9666 16.2037 13.5367C16.5423 14.7477 16.2026 16.0472 15.3146 16.9376L8.0516 24.2006C6.69371 25.5588 4.49186 25.559 3.13366 24.2011C1.77546 22.8432 1.77521 20.6414 3.13309 19.2832L10.3961 12.0191C10.8713 11.5426 11.4751 11.215 12.1336 11.0763C12.7144 10.9601 13.0911 10.3951 12.9749 9.81433C12.8587 9.23355 12.2937 8.85681 11.7129 8.97301C11.7058 8.97445 11.6987 8.9759 11.6917 8.97747C10.6263 9.20238 9.64922 9.73226 8.8796 10.5026L1.61659 17.7656C-0.56251 19.9783 -0.535237 23.5385 1.67749 25.7177C3.86608 27.8729 7.37919 27.8732 9.5681 25.7182L16.831 18.4541C18.2681 17.0148 18.8175 14.9126 18.2682 12.9544Z" fill="#015890"/>
</g>
<defs>
<clipPath id="clip0">
<rect width="30" height="30" fill="white"/>
</clipPath>
</defs>
</svg>
